<mxfile host="app.diagrams.net" modified="2021-04-28T09:03:01.837Z" agent="5.0 (Windows NT 10.0; Win64; x64) AppleWebKit/537.36 (KHTML, like Gecko) Chrome/90.0.4430.93 Safari/537.36" etag="U4iFwaGlXv1ZJa6bjehe" version="14.6.6" type="github">
  <diagram id="C5RBs43oDa-KdzZeNtuy" name="Page-1">
    <mxGraphModel dx="3010" dy="1134" grid="1" gridSize="10" guides="1" tooltips="1" connect="1" arrows="1" fold="1" page="1" pageScale="1" pageWidth="827" pageHeight="1169" math="0" shadow="0">
      <root>
        <mxCell id="WIyWlLk6GJQsqaUBKTNV-0" />
        <mxCell id="WIyWlLk6GJQsqaUBKTNV-1" parent="WIyWlLk6GJQsqaUBKTNV-0" />
        <mxCell id="WIyWlLk6GJQsqaUBKTNV-3" value="초기 화면" style="rounded=1;whiteSpace=wrap;html=1;fontSize=12;glass=0;strokeWidth=1;shadow=0;arcSize=50;" parent="WIyWlLk6GJQsqaUBKTNV-1" vertex="1">
          <mxGeometry x="160" y="80" width="120" height="40" as="geometry" />
        </mxCell>
        <mxCell id="WIyWlLk6GJQsqaUBKTNV-4" value="Yes" style="rounded=0;html=1;jettySize=auto;orthogonalLoop=1;fontSize=11;endArrow=block;endFill=0;endSize=8;strokeWidth=1;shadow=0;labelBackgroundColor=none;edgeStyle=orthogonalEdgeStyle;" parent="WIyWlLk6GJQsqaUBKTNV-1" source="WIyWlLk6GJQsqaUBKTNV-6" edge="1">
          <mxGeometry x="-1" y="86" relative="1" as="geometry">
            <mxPoint x="-16" y="-50" as="offset" />
            <mxPoint x="220" y="289.9999999999999" as="targetPoint" />
          </mxGeometry>
        </mxCell>
        <mxCell id="WIyWlLk6GJQsqaUBKTNV-5" value="No" style="edgeStyle=orthogonalEdgeStyle;rounded=0;html=1;jettySize=auto;orthogonalLoop=1;fontSize=11;endArrow=block;endFill=0;endSize=8;strokeWidth=1;shadow=0;labelBackgroundColor=none;" parent="WIyWlLk6GJQsqaUBKTNV-1" source="WIyWlLk6GJQsqaUBKTNV-6" edge="1">
          <mxGeometry x="-1" y="-72" relative="1" as="geometry">
            <mxPoint x="-40" y="-12" as="offset" />
            <mxPoint x="320" y="210" as="targetPoint" />
          </mxGeometry>
        </mxCell>
        <mxCell id="WIyWlLk6GJQsqaUBKTNV-6" value="신규 회원인가?" style="rhombus;whiteSpace=wrap;html=1;shadow=0;fontFamily=Helvetica;fontSize=12;align=center;strokeWidth=1;spacing=6;spacingTop=-4;" parent="WIyWlLk6GJQsqaUBKTNV-1" vertex="1">
          <mxGeometry x="170" y="170" width="100" height="80" as="geometry" />
        </mxCell>
        <mxCell id="vmh9NQLJBxuMwCEvGXWA-4" value="" style="edgeStyle=orthogonalEdgeStyle;rounded=0;orthogonalLoop=1;jettySize=auto;html=1;" edge="1" parent="WIyWlLk6GJQsqaUBKTNV-1" source="vmh9NQLJBxuMwCEvGXWA-0" target="vmh9NQLJBxuMwCEvGXWA-3">
          <mxGeometry relative="1" as="geometry" />
        </mxCell>
        <mxCell id="vmh9NQLJBxuMwCEvGXWA-0" value="회원가입" style="rounded=0;whiteSpace=wrap;html=1;" vertex="1" parent="WIyWlLk6GJQsqaUBKTNV-1">
          <mxGeometry x="324" y="190" width="90" height="40" as="geometry" />
        </mxCell>
        <mxCell id="vmh9NQLJBxuMwCEvGXWA-3" value="사용자 취향 분석" style="whiteSpace=wrap;html=1;rounded=0;" vertex="1" parent="WIyWlLk6GJQsqaUBKTNV-1">
          <mxGeometry x="470" y="188.75" width="109" height="42.5" as="geometry" />
        </mxCell>
        <mxCell id="vmh9NQLJBxuMwCEvGXWA-7" value="로그인" style="rounded=0;whiteSpace=wrap;html=1;" vertex="1" parent="WIyWlLk6GJQsqaUBKTNV-1">
          <mxGeometry x="180" y="290" width="80" height="40" as="geometry" />
        </mxCell>
        <mxCell id="vmh9NQLJBxuMwCEvGXWA-8" value="" style="endArrow=classic;html=1;exitX=0.5;exitY=1;exitDx=0;exitDy=0;entryX=1;entryY=0.5;entryDx=0;entryDy=0;" edge="1" parent="WIyWlLk6GJQsqaUBKTNV-1" source="vmh9NQLJBxuMwCEvGXWA-3" target="vmh9NQLJBxuMwCEvGXWA-7">
          <mxGeometry width="50" height="50" relative="1" as="geometry">
            <mxPoint x="360" y="400" as="sourcePoint" />
            <mxPoint x="410" y="350" as="targetPoint" />
            <Array as="points">
              <mxPoint x="525" y="310" />
            </Array>
          </mxGeometry>
        </mxCell>
        <mxCell id="vmh9NQLJBxuMwCEvGXWA-12" value="" style="endArrow=classic;html=1;exitX=1;exitY=0.5;exitDx=0;exitDy=0;entryX=0;entryY=0.5;entryDx=0;entryDy=0;" edge="1" parent="WIyWlLk6GJQsqaUBKTNV-1" source="vmh9NQLJBxuMwCEvGXWA-3">
          <mxGeometry width="50" height="50" relative="1" as="geometry">
            <mxPoint x="520" y="320" as="sourcePoint" />
            <mxPoint x="630" y="210.00499999999988" as="targetPoint" />
          </mxGeometry>
        </mxCell>
        <mxCell id="vmh9NQLJBxuMwCEvGXWA-76" style="edgeStyle=orthogonalEdgeStyle;rounded=0;orthogonalLoop=1;jettySize=auto;html=1;exitX=0.5;exitY=1;exitDx=0;exitDy=0;entryX=0.5;entryY=0;entryDx=0;entryDy=0;" edge="1" parent="WIyWlLk6GJQsqaUBKTNV-1" source="vmh9NQLJBxuMwCEvGXWA-14" target="vmh9NQLJBxuMwCEvGXWA-73">
          <mxGeometry relative="1" as="geometry" />
        </mxCell>
        <mxCell id="vmh9NQLJBxuMwCEvGXWA-14" value="영화 선택 화면" style="rounded=0;whiteSpace=wrap;html=1;" vertex="1" parent="WIyWlLk6GJQsqaUBKTNV-1">
          <mxGeometry x="340" y="440" width="120" height="60" as="geometry" />
        </mxCell>
        <mxCell id="vmh9NQLJBxuMwCEvGXWA-69" style="edgeStyle=orthogonalEdgeStyle;rounded=0;orthogonalLoop=1;jettySize=auto;html=1;exitX=1;exitY=0.5;exitDx=0;exitDy=0;entryX=1;entryY=0.75;entryDx=0;entryDy=0;" edge="1" parent="WIyWlLk6GJQsqaUBKTNV-1" source="vmh9NQLJBxuMwCEvGXWA-15" target="vmh9NQLJBxuMwCEvGXWA-18">
          <mxGeometry relative="1" as="geometry" />
        </mxCell>
        <mxCell id="vmh9NQLJBxuMwCEvGXWA-15" value="영화 추천 화면" style="rounded=0;whiteSpace=wrap;html=1;" vertex="1" parent="WIyWlLk6GJQsqaUBKTNV-1">
          <mxGeometry x="70" y="550" width="110" height="60" as="geometry" />
        </mxCell>
        <mxCell id="vmh9NQLJBxuMwCEvGXWA-18" value="마이페이지" style="rounded=0;whiteSpace=wrap;html=1;" vertex="1" parent="WIyWlLk6GJQsqaUBKTNV-1">
          <mxGeometry x="-10" y="440" width="120" height="60" as="geometry" />
        </mxCell>
        <mxCell id="vmh9NQLJBxuMwCEvGXWA-22" value="" style="endArrow=classic;html=1;exitX=0.5;exitY=1;exitDx=0;exitDy=0;entryX=0.5;entryY=0;entryDx=0;entryDy=0;" edge="1" parent="WIyWlLk6GJQsqaUBKTNV-1" source="vmh9NQLJBxuMwCEvGXWA-7">
          <mxGeometry width="50" height="50" relative="1" as="geometry">
            <mxPoint x="240" y="480" as="sourcePoint" />
            <mxPoint x="220" y="369.9999999999999" as="targetPoint" />
          </mxGeometry>
        </mxCell>
        <mxCell id="vmh9NQLJBxuMwCEvGXWA-37" value="DB에 저장" style="rounded=0;whiteSpace=wrap;html=1;" vertex="1" parent="WIyWlLk6GJQsqaUBKTNV-1">
          <mxGeometry x="630" y="190" width="100" height="40" as="geometry" />
        </mxCell>
        <mxCell id="vmh9NQLJBxuMwCEvGXWA-38" value="메인 화면" style="rounded=0;whiteSpace=wrap;html=1;" vertex="1" parent="WIyWlLk6GJQsqaUBKTNV-1">
          <mxGeometry x="167" y="370" width="106" height="40" as="geometry" />
        </mxCell>
        <mxCell id="vmh9NQLJBxuMwCEvGXWA-39" value="" style="endArrow=classic;html=1;exitX=0.5;exitY=1;exitDx=0;exitDy=0;" edge="1" parent="WIyWlLk6GJQsqaUBKTNV-1" source="vmh9NQLJBxuMwCEvGXWA-18">
          <mxGeometry width="50" height="50" relative="1" as="geometry">
            <mxPoint x="200" y="480" as="sourcePoint" />
            <mxPoint x="120" y="550" as="targetPoint" />
          </mxGeometry>
        </mxCell>
        <mxCell id="vmh9NQLJBxuMwCEvGXWA-40" value="예매 확인 화면" style="rounded=0;whiteSpace=wrap;html=1;" vertex="1" parent="WIyWlLk6GJQsqaUBKTNV-1">
          <mxGeometry x="-90" y="550" width="120" height="60" as="geometry" />
        </mxCell>
        <mxCell id="vmh9NQLJBxuMwCEvGXWA-41" value="" style="endArrow=classic;html=1;exitX=0.5;exitY=1;exitDx=0;exitDy=0;entryX=0.625;entryY=0;entryDx=0;entryDy=0;entryPerimeter=0;" edge="1" parent="WIyWlLk6GJQsqaUBKTNV-1" source="vmh9NQLJBxuMwCEvGXWA-18" target="vmh9NQLJBxuMwCEvGXWA-40">
          <mxGeometry width="50" height="50" relative="1" as="geometry">
            <mxPoint x="190" y="440" as="sourcePoint" />
            <mxPoint x="240" y="390" as="targetPoint" />
          </mxGeometry>
        </mxCell>
        <mxCell id="vmh9NQLJBxuMwCEvGXWA-64" style="edgeStyle=orthogonalEdgeStyle;rounded=0;orthogonalLoop=1;jettySize=auto;html=1;exitX=0;exitY=0.5;exitDx=0;exitDy=0;entryX=0;entryY=0.5;entryDx=0;entryDy=0;" edge="1" parent="WIyWlLk6GJQsqaUBKTNV-1" source="vmh9NQLJBxuMwCEvGXWA-44" target="vmh9NQLJBxuMwCEvGXWA-18">
          <mxGeometry relative="1" as="geometry" />
        </mxCell>
        <mxCell id="vmh9NQLJBxuMwCEvGXWA-44" value="예매 확인" style="rounded=0;whiteSpace=wrap;html=1;" vertex="1" parent="WIyWlLk6GJQsqaUBKTNV-1">
          <mxGeometry x="-130" y="700" width="90" height="60" as="geometry" />
        </mxCell>
        <mxCell id="vmh9NQLJBxuMwCEvGXWA-45" value="예매 취소" style="rounded=0;whiteSpace=wrap;html=1;" vertex="1" parent="WIyWlLk6GJQsqaUBKTNV-1">
          <mxGeometry x="-10" y="700" width="90" height="60" as="geometry" />
        </mxCell>
        <mxCell id="vmh9NQLJBxuMwCEvGXWA-46" value="" style="endArrow=classic;html=1;exitX=0.5;exitY=1;exitDx=0;exitDy=0;entryX=0.5;entryY=0;entryDx=0;entryDy=0;" edge="1" parent="WIyWlLk6GJQsqaUBKTNV-1" source="vmh9NQLJBxuMwCEvGXWA-40" target="vmh9NQLJBxuMwCEvGXWA-44">
          <mxGeometry width="50" height="50" relative="1" as="geometry">
            <mxPoint x="170" y="760" as="sourcePoint" />
            <mxPoint x="220" y="710" as="targetPoint" />
          </mxGeometry>
        </mxCell>
        <mxCell id="vmh9NQLJBxuMwCEvGXWA-47" value="" style="endArrow=classic;html=1;exitX=0.5;exitY=1;exitDx=0;exitDy=0;entryX=0.5;entryY=0;entryDx=0;entryDy=0;" edge="1" parent="WIyWlLk6GJQsqaUBKTNV-1" source="vmh9NQLJBxuMwCEvGXWA-40" target="vmh9NQLJBxuMwCEvGXWA-45">
          <mxGeometry width="50" height="50" relative="1" as="geometry">
            <mxPoint x="170" y="760" as="sourcePoint" />
            <mxPoint x="40" y="640" as="targetPoint" />
          </mxGeometry>
        </mxCell>
        <mxCell id="vmh9NQLJBxuMwCEvGXWA-48" value="예매 확인 버튼 클릭" style="text;html=1;strokeColor=none;fillColor=none;align=center;verticalAlign=middle;whiteSpace=wrap;rounded=0;" vertex="1" parent="WIyWlLk6GJQsqaUBKTNV-1">
          <mxGeometry x="-125" y="640" width="60" height="20" as="geometry" />
        </mxCell>
        <mxCell id="vmh9NQLJBxuMwCEvGXWA-49" value="예매 취소&lt;br&gt;버튼 클릭" style="text;html=1;strokeColor=none;fillColor=none;align=center;verticalAlign=middle;whiteSpace=wrap;rounded=0;" vertex="1" parent="WIyWlLk6GJQsqaUBKTNV-1">
          <mxGeometry y="640" width="70" height="20" as="geometry" />
        </mxCell>
        <mxCell id="vmh9NQLJBxuMwCEvGXWA-51" value="" style="endArrow=classic;html=1;exitX=0.5;exitY=1;exitDx=0;exitDy=0;entryX=0.5;entryY=0;entryDx=0;entryDy=0;" edge="1" parent="WIyWlLk6GJQsqaUBKTNV-1" source="vmh9NQLJBxuMwCEvGXWA-45">
          <mxGeometry width="50" height="50" relative="1" as="geometry">
            <mxPoint x="170" y="950" as="sourcePoint" />
            <mxPoint x="35" y="800" as="targetPoint" />
          </mxGeometry>
        </mxCell>
        <mxCell id="vmh9NQLJBxuMwCEvGXWA-52" value="취소하시겠습니까?" style="rhombus;whiteSpace=wrap;html=1;" vertex="1" parent="WIyWlLk6GJQsqaUBKTNV-1">
          <mxGeometry x="-5" y="800" width="80" height="80" as="geometry" />
        </mxCell>
        <mxCell id="vmh9NQLJBxuMwCEvGXWA-53" value="Yes" style="edgeStyle=orthogonalEdgeStyle;rounded=0;html=1;jettySize=auto;orthogonalLoop=1;fontSize=11;endArrow=block;endFill=0;endSize=8;strokeWidth=1;shadow=0;labelBackgroundColor=none;" edge="1" parent="WIyWlLk6GJQsqaUBKTNV-1">
          <mxGeometry x="-0.1" y="9" relative="1" as="geometry">
            <mxPoint as="offset" />
            <mxPoint x="75" y="839.66" as="sourcePoint" />
            <mxPoint x="125" y="839.66" as="targetPoint" />
          </mxGeometry>
        </mxCell>
        <mxCell id="vmh9NQLJBxuMwCEvGXWA-54" value="No" style="edgeStyle=orthogonalEdgeStyle;rounded=0;html=1;jettySize=auto;orthogonalLoop=1;fontSize=11;endArrow=block;endFill=0;endSize=8;strokeWidth=1;shadow=0;labelBackgroundColor=none;exitX=0.5;exitY=1;exitDx=0;exitDy=0;entryX=0;entryY=0.5;entryDx=0;entryDy=0;" edge="1" parent="WIyWlLk6GJQsqaUBKTNV-1" source="vmh9NQLJBxuMwCEvGXWA-52" target="vmh9NQLJBxuMwCEvGXWA-58">
          <mxGeometry x="-0.3333" y="-15" relative="1" as="geometry">
            <mxPoint as="offset" />
            <mxPoint x="50" y="910" as="sourcePoint" />
            <mxPoint x="35" y="930" as="targetPoint" />
          </mxGeometry>
        </mxCell>
        <mxCell id="vmh9NQLJBxuMwCEvGXWA-62" style="edgeStyle=orthogonalEdgeStyle;rounded=0;orthogonalLoop=1;jettySize=auto;html=1;exitX=0.5;exitY=1;exitDx=0;exitDy=0;entryX=0.5;entryY=0;entryDx=0;entryDy=0;" edge="1" parent="WIyWlLk6GJQsqaUBKTNV-1" source="vmh9NQLJBxuMwCEvGXWA-55" target="vmh9NQLJBxuMwCEvGXWA-58">
          <mxGeometry relative="1" as="geometry" />
        </mxCell>
        <mxCell id="vmh9NQLJBxuMwCEvGXWA-55" value="취소 완료" style="rounded=1;whiteSpace=wrap;html=1;arcSize=50;" vertex="1" parent="WIyWlLk6GJQsqaUBKTNV-1">
          <mxGeometry x="127.5" y="820" width="70" height="40" as="geometry" />
        </mxCell>
        <mxCell id="vmh9NQLJBxuMwCEvGXWA-63" style="edgeStyle=orthogonalEdgeStyle;rounded=0;orthogonalLoop=1;jettySize=auto;html=1;exitX=1;exitY=0.5;exitDx=0;exitDy=0;entryX=1;entryY=0.5;entryDx=0;entryDy=0;" edge="1" parent="WIyWlLk6GJQsqaUBKTNV-1" source="vmh9NQLJBxuMwCEvGXWA-58" target="vmh9NQLJBxuMwCEvGXWA-18">
          <mxGeometry relative="1" as="geometry">
            <mxPoint x="120" y="480" as="targetPoint" />
            <Array as="points">
              <mxPoint x="230" y="935" />
              <mxPoint x="230" y="470" />
            </Array>
          </mxGeometry>
        </mxCell>
        <mxCell id="vmh9NQLJBxuMwCEvGXWA-58" value="" style="ellipse;whiteSpace=wrap;html=1;aspect=fixed;" vertex="1" parent="WIyWlLk6GJQsqaUBKTNV-1">
          <mxGeometry x="147.5" y="920" width="30" height="30" as="geometry" />
        </mxCell>
        <mxCell id="vmh9NQLJBxuMwCEvGXWA-65" value="뒤로 가기&lt;br&gt;버튼 클릭" style="text;html=1;strokeColor=none;fillColor=none;align=center;verticalAlign=middle;whiteSpace=wrap;rounded=0;" vertex="1" parent="WIyWlLk6GJQsqaUBKTNV-1">
          <mxGeometry x="-230" y="590" width="80" height="20" as="geometry" />
        </mxCell>
        <mxCell id="vmh9NQLJBxuMwCEvGXWA-67" value="뒤로 가기&lt;br&gt;버튼 클릭" style="text;html=1;strokeColor=none;fillColor=none;align=center;verticalAlign=middle;whiteSpace=wrap;rounded=0;" vertex="1" parent="WIyWlLk6GJQsqaUBKTNV-1">
          <mxGeometry x="122.5" y="510" width="80" height="20" as="geometry" />
        </mxCell>
        <mxCell id="vmh9NQLJBxuMwCEvGXWA-71" value="" style="endArrow=classic;html=1;exitX=0.5;exitY=1;exitDx=0;exitDy=0;entryX=0.5;entryY=0;entryDx=0;entryDy=0;" edge="1" parent="WIyWlLk6GJQsqaUBKTNV-1" source="vmh9NQLJBxuMwCEvGXWA-38" target="vmh9NQLJBxuMwCEvGXWA-18">
          <mxGeometry width="50" height="50" relative="1" as="geometry">
            <mxPoint x="320" y="530" as="sourcePoint" />
            <mxPoint x="370" y="480" as="targetPoint" />
          </mxGeometry>
        </mxCell>
        <mxCell id="vmh9NQLJBxuMwCEvGXWA-72" value="" style="endArrow=classic;html=1;entryX=0.5;entryY=0;entryDx=0;entryDy=0;" edge="1" parent="WIyWlLk6GJQsqaUBKTNV-1" target="vmh9NQLJBxuMwCEvGXWA-14">
          <mxGeometry width="50" height="50" relative="1" as="geometry">
            <mxPoint x="220" y="410" as="sourcePoint" />
            <mxPoint x="370" y="480" as="targetPoint" />
          </mxGeometry>
        </mxCell>
        <mxCell id="vmh9NQLJBxuMwCEvGXWA-77" style="edgeStyle=orthogonalEdgeStyle;rounded=0;orthogonalLoop=1;jettySize=auto;html=1;exitX=0.5;exitY=1;exitDx=0;exitDy=0;entryX=0.5;entryY=0;entryDx=0;entryDy=0;" edge="1" parent="WIyWlLk6GJQsqaUBKTNV-1" source="vmh9NQLJBxuMwCEvGXWA-73" target="vmh9NQLJBxuMwCEvGXWA-74">
          <mxGeometry relative="1" as="geometry" />
        </mxCell>
        <mxCell id="vmh9NQLJBxuMwCEvGXWA-73" value="영화 좌석 선택" style="rounded=0;whiteSpace=wrap;html=1;" vertex="1" parent="WIyWlLk6GJQsqaUBKTNV-1">
          <mxGeometry x="340" y="531" width="120" height="60" as="geometry" />
        </mxCell>
        <mxCell id="vmh9NQLJBxuMwCEvGXWA-78" style="edgeStyle=orthogonalEdgeStyle;rounded=0;orthogonalLoop=1;jettySize=auto;html=1;exitX=0.5;exitY=1;exitDx=0;exitDy=0;entryX=0.5;entryY=0;entryDx=0;entryDy=0;" edge="1" parent="WIyWlLk6GJQsqaUBKTNV-1" source="vmh9NQLJBxuMwCEvGXWA-74" target="vmh9NQLJBxuMwCEvGXWA-75">
          <mxGeometry relative="1" as="geometry" />
        </mxCell>
        <mxCell id="vmh9NQLJBxuMwCEvGXWA-74" value="영화관 지점 선택" style="rounded=0;whiteSpace=wrap;html=1;" vertex="1" parent="WIyWlLk6GJQsqaUBKTNV-1">
          <mxGeometry x="340" y="619" width="120" height="60" as="geometry" />
        </mxCell>
        <mxCell id="vmh9NQLJBxuMwCEvGXWA-82" value="" style="edgeStyle=orthogonalEdgeStyle;rounded=0;orthogonalLoop=1;jettySize=auto;html=1;" edge="1" parent="WIyWlLk6GJQsqaUBKTNV-1" source="vmh9NQLJBxuMwCEvGXWA-75" target="vmh9NQLJBxuMwCEvGXWA-81">
          <mxGeometry relative="1" as="geometry" />
        </mxCell>
        <mxCell id="vmh9NQLJBxuMwCEvGXWA-75" value="결제 화면" style="rounded=0;whiteSpace=wrap;html=1;" vertex="1" parent="WIyWlLk6GJQsqaUBKTNV-1">
          <mxGeometry x="340" y="710" width="120" height="60" as="geometry" />
        </mxCell>
        <mxCell id="vmh9NQLJBxuMwCEvGXWA-81" value="추가 예매&amp;nbsp;&lt;br&gt;하시겠습니까?" style="rhombus;whiteSpace=wrap;html=1;rounded=0;" vertex="1" parent="WIyWlLk6GJQsqaUBKTNV-1">
          <mxGeometry x="355" y="840" width="90" height="80" as="geometry" />
        </mxCell>
        <mxCell id="vmh9NQLJBxuMwCEvGXWA-83" value="" style="endArrow=classic;html=1;exitX=0.5;exitY=1;exitDx=0;exitDy=0;entryX=0.5;entryY=0;entryDx=0;entryDy=0;" edge="1" parent="WIyWlLk6GJQsqaUBKTNV-1" source="WIyWlLk6GJQsqaUBKTNV-3" target="WIyWlLk6GJQsqaUBKTNV-6">
          <mxGeometry width="50" height="50" relative="1" as="geometry">
            <mxPoint x="360" y="560" as="sourcePoint" />
            <mxPoint x="410" y="510" as="targetPoint" />
          </mxGeometry>
        </mxCell>
        <mxCell id="vmh9NQLJBxuMwCEvGXWA-85" value="Yes" style="rounded=0;html=1;jettySize=auto;orthogonalLoop=1;fontSize=11;endArrow=block;endFill=0;endSize=8;strokeWidth=1;shadow=0;labelBackgroundColor=none;edgeStyle=orthogonalEdgeStyle;entryX=1;entryY=0.5;entryDx=0;entryDy=0;" edge="1" parent="WIyWlLk6GJQsqaUBKTNV-1" target="vmh9NQLJBxuMwCEvGXWA-38">
          <mxGeometry x="-0.4885" y="80" relative="1" as="geometry">
            <mxPoint as="offset" />
            <mxPoint x="399.8" y="920" as="sourcePoint" />
            <mxPoint x="399.8" y="960" as="targetPoint" />
            <Array as="points">
              <mxPoint x="400" y="950" />
              <mxPoint x="550" y="950" />
              <mxPoint x="550" y="390" />
            </Array>
          </mxGeometry>
        </mxCell>
        <mxCell id="vmh9NQLJBxuMwCEvGXWA-86" value="No" style="edgeStyle=orthogonalEdgeStyle;rounded=0;html=1;jettySize=auto;orthogonalLoop=1;fontSize=11;endArrow=block;endFill=0;endSize=8;strokeWidth=1;shadow=0;labelBackgroundColor=none;entryX=1;entryY=0.5;entryDx=0;entryDy=0;" edge="1" parent="WIyWlLk6GJQsqaUBKTNV-1" target="vmh9NQLJBxuMwCEvGXWA-14">
          <mxGeometry x="-1" y="-81" relative="1" as="geometry">
            <mxPoint x="-55" y="-21" as="offset" />
            <mxPoint x="445" y="880" as="sourcePoint" />
            <mxPoint x="495" y="880" as="targetPoint" />
            <Array as="points">
              <mxPoint x="500" y="880" />
              <mxPoint x="500" y="470" />
            </Array>
          </mxGeometry>
        </mxCell>
      </root>
    </mxGraphModel>
  </diagram>
</mxfile>
